<?xml version="1.0" encoding="UTF-8" standalone="no"?>
<!-- Generator: Adobe Illustrator 16.0.0, SVG Export Plug-In . SVG Version: 6.00 Build 0)  -->

<svg
   xmlns:dc="http://purl.org/dc/elements/1.1/"
   xmlns:cc="http://creativecommons.org/ns#"
   xmlns:rdf="http://www.w3.org/1999/02/22-rdf-syntax-ns#"
   xmlns:svg="http://www.w3.org/2000/svg"
   xmlns="http://www.w3.org/2000/svg"
   xmlns:sodipodi="http://sodipodi.sourceforge.net/DTD/sodipodi-0.dtd"
   xmlns:inkscape="http://www.inkscape.org/namespaces/inkscape"
   version="1.1"
   id="Layer_1"
   x="0px"
   y="0px"
   width="1239.663"
   height="460.80139"
   viewBox="0 0 1239.663 460.80139"
   enable-background="new 0 0 612 792"
   xml:space="preserve"
   sodipodi:docname="silentorb.svg"
   inkscape:version="0.92.4 (5da689c313, 2019-01-14)"><metadata
   id="metadata842"><rdf:RDF><cc:Work
       rdf:about=""><dc:format>image/svg+xml</dc:format><dc:type
         rdf:resource="http://purl.org/dc/dcmitype/StillImage" /><dc:title></dc:title></cc:Work></rdf:RDF></metadata><defs
   id="defs840" /><sodipodi:namedview
   pagecolor="#ffffff"
   bordercolor="#666666"
   borderopacity="1"
   objecttolerance="10"
   gridtolerance="10"
   guidetolerance="10"
   inkscape:pageopacity="0"
   inkscape:pageshadow="2"
   inkscape:window-width="1920"
   inkscape:window-height="1017"
   id="namedview838"
   showgrid="false"
   fit-margin-top="0"
   fit-margin-left="0"
   fit-margin-right="0"
   fit-margin-bottom="0"
   inkscape:zoom="1.0732323"
   inkscape:cx="619.66302"
   inkscape:cy="335.71276"
   inkscape:window-x="-8"
   inkscape:window-y="-8"
   inkscape:window-maximized="1"
   inkscape:current-layer="Layer_1" />
<path
   d="m 22.163,3.9e-4 c -12.921,29.3 -22.163,86.4 -22.163,115.2 0,36.495 9.305,100.19 14.642,116.834 5.005,15.61 16.051,75.989 16.051,111.494 0,28.8 -5.3,70.737 -8.53,117.272 13.997,-45.673 19.277,-88.473 19.277,-117.272 0,-35.461 -10.733,-96.085 -15.115,-111.347 -4.822,-16.791 -15.194,-80.441 -15.194,-116.98 0,-28.801 4.533,-68.721 11.032,-115.201 z"
   id="path815"
   inkscape:connector-curvature="0"
   style="clip-rule:evenodd;fill-rule:evenodd" />
<path
   d="m 148.163,3.9e-4 c 0,0 -6.311,52 -6.311,230.4 0,177.6 6.311,230.4 6.311,230.4 0,0 6.311,-51.2 6.311,-230.4 -10e-4,-179.2 -6.311,-230.4 -6.311,-230.4 z"
   id="path817"
   inkscape:connector-curvature="0"
   style="clip-rule:evenodd;fill-rule:evenodd" />
<path
   d="m 256.16302,3.9e-4 c 0,0 -5.5,50.4 -5.5,230.4 0,177.6 4.797,230.4 4.797,230.4 0,0 33.369,-4.305 54.703,-6.4 -17.591,-1.796 -46.203,-6.4 -46.203,-6.4 0,0 -1.297,-48 -1.297,-217.6 0,-183.2 -6.5,-230.4 -6.5,-230.4 z"
   id="path819"
   inkscape:connector-curvature="0"
   style="clip-rule:evenodd;fill-rule:evenodd" />
<path
   d="m 362.66302,3.9e-4 c -0.934,11.521 -3,48 -3,230.4 0,182.4 3.798,230.4 3.798,230.4 0,0 30.492,-4.005 50.703,-6.4 -20.767,-3.474 -43.203,-6.4 -43.203,-6.4 0,0 1.024,-206.029 1.203,-211.6 14.968,-0.734 22.71,-4.533 36,-6 -13.437,-1.186 -21.378,-5.17 -36,-6 0.178,-9.286 -2,-203.786 -2,-211.536 12,-0.897 32.396,-3.275 44,-5.664 -9.045,-1.877 -31.058,-5.705 -51.501,-7.2 z"
   id="path821"
   inkscape:connector-curvature="0"
   style="clip-rule:evenodd;fill-rule:evenodd" />
<path
   d="m 568.25402,460.80039 c 0,0 5.908,-99.269 5.908,-230.4 0,-174.4 -6,-230.4 -6,-230.4 0,0 -7.842,50.391 -7.842,230.391 0,9.6 3.39,119.148 2.842,135.609 -6.222,-33.973 -14.186,-84.209 -23.574,-134.493 -20.684,-110.785 -39.425,-231.507 -39.425,-231.507 0,0 -5.5,46.4 -5.5,230.4 0,184 5.5,230.4 5.5,230.4 0,0 7.5,-56.4 7.5,-230.4 0,-6 -1.973,-129.2 -1.973,-129.2"
   id="path823"
   inkscape:connector-curvature="0"
   style="clip-rule:evenodd;fill-rule:evenodd" />
<path
   d="m 638.16302,6.00039 c 0,0 38.034,-5.516 48,-6 9.966,0.446 48,6 48,6 0,0 -28.346,4.521 -42.697,6 0,11.333 1.302,38.4 1.302,218.4 0,180 -6.605,230.4 -6.605,230.4 0,0 -6.605,-56.4 -6.605,-230.4 0,-168 1.302,-211.733 1.302,-218.4 -13.334,-1.292 -42.697,-6 -42.697,-6 z"
   id="path825"
   inkscape:connector-curvature="0"
   style="clip-rule:evenodd;fill-rule:evenodd" />
<path
   d="m 890.16302,0 c -20.987,0 -38,103.15339 -38,230.40039 0,127.246 17.013,230.40039 38,230.40039 20.987,0 38,-103.15439 38,-230.40039 0,-127.246 -17.013,-230.40039 -38,-230.40039 z m 3,12.16211 c 14.911,0 27,98.497 27,220 0,121.503 -12.089,220 -27,220 -14.912,0 -27,-98.498 -27,-220 0,-121.502 12.088,-220 27,-220 z"
   id="path827"
   inkscape:connector-curvature="0" />
<path
   d="m 1023.127,3.9e-4 c -0.99,0 -2.558,57.6 -2.558,230.4 0,184.8 6.594,230.4 6.594,230.4 0,0 6.146,-66.626 6.146,-230.4 0,-136 -3.73,-220.902 -3.726,-220.982 47.776,8.576 41.801,132.831 41.801,132.831 0,0 2.604,27.815 -15.262,79.632 -1.935,4.805 -4.124,7.72 -2.475,17.703 12,101 35.026,221.217 35.026,221.217 0,0 -1.388,-66.8 -22.882,-228.65 5,-28.8 17.872,-36.55 17.872,-102.55 0,-32.587 -11.163,-92.752 -21.623,-108.056 -9.285,-13.586 -18.349,-21.545 -38.913,-21.545 z"
   id="path829"
   inkscape:connector-curvature="0"
   style="clip-rule:evenodd;fill-rule:evenodd" />
<path
   d="m 1175.163,0 c -1.716,18.191 -2.2969,55.20039 -2.2969,230.40039 0,175.2 -0.205,230.40039 1.795,230.40039 20.069,0 33.3287,-16.05012 42.5507,-28.70312 10.497,-14.4 22.4512,-53.08405 22.4512,-86.49805 0,-67.2 -24.3203,-113.44922 -24.3203,-113.44922 0,0 24.3213,-43.74922 22.8223,-116.94922 -0.764,-37.281 -14.8873,-79.59694 -26.8653,-95.83594 C 1206.1487,12.38223 1190.605,0 1175.163,0 Z m 7.084,9.36328 c 0,0 43.5879,8.80249 43.5879,115.02149 10e-4,53.05199 -7.5008,81.70399 -21.6738,107 25.992,57.39999 22.8701,91.29351 22.7441,115.97851 -0.39,76.304 -35.6592,102.91114 -45.3262,103.24414 0.667,-20 3.42,-219.36133 3.42,-219.36133 z"
   id="path831"
   inkscape:connector-curvature="0" />


</svg>